<svg width="32" height="30" viewBox="0 0 32 30" fill="none" xmlns="http://www.w3.org/2000/svg">
<path fill-rule="evenodd" clip-rule="evenodd" d="M12.709 0H28.709C30.409 0 31.709 1.3 31.709 3V14C31.709 15.7 30.409 17 28.709 17H17.709V24H11.009L4.70898 29.1V24H3.70898C2.00898 24 0.708984 22.7 0.708984 21V10C0.708984 8.3 2.00898 7 3.70898 7H16.709V5H12.709V0ZM11.009 18.3L11.509 19.9H13.909L10.609 11H8.20898L4.90898 19.9H7.30898L7.90898 18.3H11.009ZM22.809 13C24.009 13.6 25.409 14 26.709 14V12C26.109 12 25.509 11.9 24.809 11.7C26.309 10.2 27.109 8.1 27.009 6L26.909 5H23.609V3H21.609V5H18.609V7H24.609C24.509 8.5 23.809 9.8 22.709 10.7C22.009 10.1 21.409 9.4 21.109 8.5H19.009C19.309 9.7 19.909 10.8 20.809 11.7C20.109 11.9 19.409 12 18.709 12L18.809 14C20.209 13.9 21.609 13.6 22.809 13ZM8.40918 16.6L9.40918 13.5L10.4092 16.6H8.40918Z" fill="#5380F5"/>
</svg>
